<?xml version="1.0" encoding="utf-8"?>
<!-- Generator: Adobe Illustrator 24.0.1, SVG Export Plug-In . SVG Version: 6.00 Build 0)  -->
<svg version="1.1" id="Layer_1" xmlns="http://www.w3.org/2000/svg" xmlns:xlink="http://www.w3.org/1999/xlink" x="0px" y="0px"
	 viewBox="0 0 165 32" style="enable-background:new 0 0 165 32;" xml:space="preserve">
<style type="text/css">
	.st0{fill:#FFFFFF;}
</style>
<g transform="translate(45 2)">
	<path class="st0" d="M4.5,13c0.4,0.3,0.8,0.5,1.4,0.5s1-0.2,1.4-0.5s0.7-0.7,0.9-1.3c0.2-0.5,0.3-1.1,0.4-1.7c0-0.6,0-1.3,0-2
		c0-3.6-0.9-5.4-2.8-5.4C4,2.5,3.1,4.3,3,7.9C3,8.7,3,9.3,3.1,10c0.1,0.6,0.2,1.2,0.4,1.8C3.8,12.3,4.1,12.7,4.5,13z M8,15.2
		c-0.6,0.3-1.3,0.4-2.1,0.4s-1.5-0.1-2.1-0.4s-1.2-0.6-1.6-1.1s-0.8-1-1-1.7c-0.3-0.6-0.5-1.3-0.6-2C0.4,9.6,0.3,8.9,0.3,8
		c0-0.8,0.1-1.6,0.2-2.3s0.3-1.4,0.6-2.1s0.6-1.2,1-1.7S3,1.1,3.7,0.8S5,0.4,5.8,0.4S7.3,0.6,8,0.9C8.6,1.1,9.1,1.5,9.5,2
		s0.8,1,1,1.7c0.3,0.6,0.5,1.3,0.6,2s0.2,1.5,0.2,2.3s-0.1,1.6-0.2,2.3s-0.3,1.4-0.6,2.1s-0.6,1.2-1,1.7C9.1,14.5,8.6,14.9,8,15.2z
		 M16.1,13c0.4,0.3,0.8,0.5,1.4,0.5s1-0.2,1.4-0.5s0.7-0.7,0.9-1.3c0.2-0.5,0.3-1.1,0.4-1.7s0.1-1.3,0.1-2.1c0-3.6-0.9-5.4-2.8-5.4
		c-1.8,0-2.8,1.8-2.8,5.4c0,0.8,0,1.4,0.1,2.1c0.1,0.6,0.2,1.2,0.4,1.8C15.5,12.3,15.8,12.7,16.1,13z M19.6,15.2
		c-0.6,0.3-1.3,0.4-2.1,0.4s-1.5-0.1-2.1-0.4s-1.2-0.6-1.6-1.1s-0.8-1-1-1.7c-0.3-0.6-0.5-1.3-0.6-2C12.1,9.6,12,8.9,12,8
		c0-0.8,0.1-1.6,0.2-2.3s0.3-1.4,0.6-2.1s0.6-1.2,1-1.7s0.9-0.8,1.6-1.1c0.6-0.3,1.3-0.4,2.1-0.4s1.5,0.1,2.1,0.4s1.1,0.6,1.6,1.1
		c0.4,0.5,0.8,1,1,1.7s0.5,1.3,0.6,2.1C22.9,6.4,23,7.2,23,8s-0.1,1.6-0.2,2.3s-0.3,1.4-0.6,2.1s-0.6,1.2-1,1.7
		C20.8,14.5,20.3,14.9,19.6,15.2z M27.8,13c0.4,0.3,0.8,0.5,1.4,0.5s1-0.2,1.4-0.5s0.7-0.7,0.9-1.3c0.2-0.5,0.3-1.1,0.4-1.7
		S32,8.7,32,7.9c0-3.6-0.9-5.4-2.8-5.4c-1.8,0-2.8,1.8-2.8,5.4c0,0.8,0,1.4,0.1,2.1c0.1,0.6,0.2,1.2,0.4,1.8S27.4,12.7,27.8,13z
		 M31.3,15.2c-0.6,0.3-1.3,0.4-2.1,0.4s-1.5-0.1-2.1-0.4s-1.2-0.6-1.6-1.1s-0.8-1-1-1.7c-0.3-0.6-0.5-1.3-0.6-2s-0.2-1.5-0.2-2.3
		s0.1-1.6,0.2-2.3s0.3-1.4,0.6-2.1s0.6-1.2,1-1.7s0.9-0.8,1.6-1.1s1.3-0.4,2.1-0.4s1.5,0.1,2.1,0.4s1.1,0.6,1.6,1.1
		c0.4,0.5,0.8,1,1,1.7c0.3,0.7,0.5,1.3,0.6,2.1c0.1,0.7,0.2,1.5,0.2,2.3s-0.1,1.6-0.2,2.3s-0.3,1.4-0.6,2.1s-0.6,1.2-1,1.7
		C32.4,14.5,31.9,14.9,31.3,15.2z M39.1,15.4l-3.3-11h2.7l2.1,8.1c0-0.2,0.4-1.5,1.1-3.9c0.7-2.5,1.1-3.8,1.2-4.1h2.7
		c0,0.2,0.4,1.5,1.1,4s1,3.8,1.1,3.9l2.2-8h2.6l-3.4,11h-2.6c-0.1-0.3-0.5-1.7-1.2-4.3s-1.1-4-1.2-4.2c-0.1,0.5-0.6,2-1.3,4.4
		s-1.1,3.8-1.2,4.2L39.1,15.4L39.1,15.4z M59.1,15.6c-1.8,0-3.1-0.5-4.1-1.5s-1.5-2.4-1.5-4.2c0-1.7,0.5-3.1,1.4-4.2
		c0.9-1,2.2-1.6,3.8-1.6c1.5,0,2.7,0.5,3.5,1.4s1.3,2.2,1.3,3.8v0.6v0.6h-7.3c0,1,0.3,1.8,0.8,2.4s1.3,0.8,2.2,0.8
		c1.2,0,2.3-0.3,3.5-0.9l0.4,1.9C61.9,15.2,60.6,15.6,59.1,15.6z M56.2,8.8H61c0-0.9-0.2-1.6-0.6-2.1S59.4,6,58.7,6S57.5,6.2,57,6.7
		S56.3,7.8,56.2,8.8z M71.5,15.6c-0.7,0-1.4-0.2-2-0.5s-1-0.7-1.3-1.1l-0.3,1.4h-2.3v-15l2.6-0.2v3.4c0,0.7,0,1.4-0.1,2.3
		c0.9-1.1,2-1.7,3.4-1.7s2.5,0.5,3.3,1.6S76,8.1,76,9.7c0,1.7-0.4,3.2-1.2,4.2S72.9,15.6,71.5,15.6z M70.8,13.6c0.8,0,1.4-0.3,1.9-1
		s0.7-1.6,0.7-2.8S73.2,7.7,72.7,7s-1.1-0.9-1.9-0.9c-1.8,0-2.7,1.2-2.7,3.6c0,1.3,0.2,2.3,0.7,3C69.3,13.3,70,13.6,70.8,13.6z
		 M78.2,15.4v-15l2.6-0.2v3.2v1.3v1.1c0.9-1,2-1.6,3.5-1.6c1.2,0,2.2,0.4,2.8,1.1s1,1.8,1,3.2v7h-2.6V8.7c0-0.9-0.1-1.6-0.4-2
		s-0.8-0.6-1.5-0.6c-0.6,0-1.1,0.1-1.6,0.4s-0.8,0.7-1,1.1C80.8,8.2,80.8,9,80.8,10v5.3L78.2,15.4L78.2,15.4z M95.4,13.6
		c0.9,0,1.6-0.3,2-1c0.4-0.6,0.7-1.6,0.7-2.8S97.9,7.7,97.4,7c-0.4-0.6-1.1-1-2-1s-1.6,0.3-2,1c-0.4,0.6-0.7,1.6-0.7,2.8
		s0.2,2.1,0.7,2.8S94.5,13.6,95.4,13.6z M95.4,15.6c-1.6,0-2.9-0.5-3.8-1.6s-1.4-2.4-1.4-4.2s0.5-3.2,1.4-4.2s2.2-1.5,3.9-1.5
		c1.6,0,2.9,0.5,3.8,1.6s1.4,2.4,1.4,4.2s-0.5,3.1-1.4,4.2C98.4,15.1,97.1,15.6,95.4,15.6z M106.4,15.6c-1.6,0-2.9-0.3-3.9-0.8
		l0.3-2c0.4,0.2,1,0.5,1.7,0.6c0.7,0.2,1.3,0.3,1.9,0.3s1-0.1,1.4-0.3c0.3-0.2,0.5-0.5,0.5-1c0-0.4-0.2-0.7-0.5-0.9
		s-0.9-0.5-1.7-0.8c-0.3-0.1-0.5-0.2-0.6-0.2c-1-0.4-1.7-0.8-2.2-1.3c-0.4-0.5-0.7-1.1-0.7-2c0-1,0.4-1.8,1.1-2.3s1.7-0.8,3-0.8
		c1.4,0,2.6,0.3,3.7,0.8l-0.6,1.8c-1-0.5-2-0.7-3-0.7c-0.5,0-0.9,0.1-1.2,0.3C105.1,6.4,105,6.7,105,7s0.1,0.6,0.4,0.8
		c0.3,0.2,0.8,0.4,1.7,0.7c0,0,0.1,0,0.3,0.1c0.1,0.1,0.3,0.1,0.3,0.1c1,0.4,1.7,0.8,2.2,1.3s0.7,1.2,0.7,2c0,1.1-0.4,1.9-1.1,2.6
		S107.7,15.6,106.4,15.6L106.4,15.6z M117.1,15.5c-0.7,0-1.4-0.1-1.9-0.3s-0.9-0.5-1.2-0.8s-0.5-0.8-0.6-1.3s-0.2-1.2-0.2-1.9V6
		h-1.8l0.1-1.4l1.9-0.2l0.8-3h1.6v3h2.7V6h-2.7v5.2c0,0.8,0.1,1.4,0.4,1.8c0.2,0.4,0.7,0.5,1.3,0.5c0.4,0,0.8,0,1.2-0.1l0.1,1.9
		c0,0-0.1,0-0.2,0s-0.3,0.1-0.4,0.1s-0.3,0-0.5,0.1C117.5,15.5,117.3,15.5,117.1,15.5z"/>
	<path class="st0" d="M1.9,28.2v-8.1h0.8l0.1,0.8C3.3,20.3,3.9,20,4.6,20c0.5,0,0.9,0.1,1.3,0.4s0.6,0.6,0.8,1S7,22.3,7,22.9
		S6.9,24,6.7,24.4s-0.5,0.8-0.8,1c-0.4,0.3-0.8,0.4-1.3,0.4c-0.4,0-0.7-0.1-1-0.2C3.2,25.5,3,25.3,2.8,25v1.1v2.1L1.9,28.2z
		 M4.4,25.2c0.3,0,0.5-0.1,0.7-0.2s0.4-0.3,0.5-0.5s0.2-0.4,0.3-0.7C6,23.6,6,23.3,6,23c0-0.6-0.1-1.2-0.4-1.6s-0.7-0.6-1.2-0.6
		c-1.1,0-1.6,0.7-1.6,2.1c0,0.8,0.1,1.3,0.4,1.7S3.8,25.2,4.4,25.2z M8.7,23c0,0.7,0.1,1.2,0.4,1.6s0.7,0.6,1.3,0.6s1-0.2,1.3-0.6
		s0.4-0.9,0.4-1.6s-0.1-1.2-0.4-1.6s-0.7-0.6-1.3-0.6s-1,0.2-1.3,0.6C8.9,21.8,8.7,22.3,8.7,23z M13,23c0,0.9-0.2,1.6-0.7,2.1
		s-1.1,0.8-1.9,0.8S9,25.6,8.5,25.1S7.8,23.9,7.8,23s0.2-1.6,0.7-2.1s1.1-0.8,1.9-0.8s1.4,0.3,1.9,0.8S13,22.1,13,23z M19.1,25.8
		c-0.8-2.5-1.3-4.1-1.5-4.7c-0.1,0.4-0.2,0.8-0.4,1.2c-0.1,0.4-0.3,0.8-0.4,1.1s-0.2,0.7-0.4,1.2s-0.3,0.9-0.4,1.1h-0.9l-1.6-5.6
		h0.9l1.2,4.6c0.2-0.5,0.7-2.1,1.5-4.6h1c0.8,2.6,1.3,4.1,1.4,4.6l1.2-4.6h0.9L20,25.8H19.1z M25.6,21.2c-0.2-0.3-0.6-0.5-1-0.5
		s-0.8,0.2-1.1,0.5s-0.4,0.7-0.5,1.3h3C26,21.9,25.9,21.5,25.6,21.2z M24.8,25.9c-0.8,0-1.5-0.3-1.9-0.8c-0.5-0.5-0.7-1.2-0.7-2.1
		s0.2-1.6,0.7-2.1s1.1-0.8,1.8-0.8s1.3,0.2,1.7,0.7s0.6,1.1,0.6,1.9v0.2v0.2h-4c0,0.6,0.2,1.1,0.5,1.5s0.7,0.5,1.3,0.5
		s1.2-0.2,1.8-0.5l0.1,0.7C26.2,25.7,25.5,25.9,24.8,25.9z M30.6,20.1H31v0.8c-0.2,0-0.3,0-0.4,0c-0.5,0-0.9,0.2-1.2,0.5
		S29,22.1,29,22.6v3.2h-0.9c0-3.5,0-5.3,0-5.6h0.7l0.1,1c0.2-0.3,0.4-0.6,0.7-0.8S30.3,20.1,30.6,20.1z M35,21.2
		c-0.2-0.3-0.6-0.5-1-0.5s-0.8,0.2-1.1,0.5s-0.4,0.7-0.5,1.3h3C35.4,21.9,35.3,21.5,35,21.2z M34.2,25.9c-0.8,0-1.5-0.3-1.9-0.8
		c-0.5-0.5-0.7-1.2-0.7-2.1s0.2-1.6,0.7-2.1s1.1-0.8,1.8-0.8s1.3,0.2,1.7,0.7s0.6,1.1,0.6,1.9v0.2v0.2h-3.9c0,0.6,0.2,1.1,0.5,1.5
		s0.7,0.5,1.3,0.5s1.2-0.2,1.8-0.5l0.1,0.7C35.6,25.7,34.9,25.9,34.2,25.9z M39.7,25.2c0.6,0,1-0.2,1.3-0.5c0.3-0.4,0.4-0.9,0.4-1.6
		c0-0.8-0.1-1.3-0.4-1.7s-0.7-0.6-1.3-0.6c-0.3,0-0.5,0.1-0.7,0.2s-0.4,0.3-0.5,0.5s-0.2,0.4-0.3,0.7s-0.1,0.5-0.1,0.9
		s0.1,0.8,0.2,1.1s0.3,0.6,0.5,0.8C39,25.1,39.3,25.2,39.7,25.2z M41.4,25c-0.2,0.3-0.4,0.5-0.7,0.7S40,26,39.7,26
		c-0.7,0-1.3-0.3-1.7-0.8S37.4,24,37.4,23c0-0.9,0.2-1.6,0.6-2.1s1-0.8,1.7-0.8c0.4,0,0.7,0.1,1.1,0.2c0.3,0.2,0.6,0.4,0.7,0.7v-0.5
		V18l0.8-0.1v7.9h-0.7L41.4,25z M48.9,20.8c-0.5,0-1,0.2-1.2,0.6c-0.3,0.4-0.4,0.9-0.4,1.6c0,1.5,0.6,2.2,1.7,2.2
		c0.3,0,0.5-0.1,0.7-0.2s0.4-0.3,0.5-0.5s0.2-0.4,0.3-0.7s0.1-0.5,0.1-0.9s-0.1-0.8-0.2-1.1s-0.3-0.6-0.5-0.8
		C49.5,20.9,49.2,20.8,48.9,20.8z M49,20.1c0.5,0,0.9,0.1,1.3,0.4s0.6,0.6,0.8,1s0.3,0.9,0.3,1.5s-0.1,1.1-0.3,1.5s-0.5,0.8-0.8,1
		c-0.4,0.3-0.8,0.4-1.3,0.4c-0.4,0-0.7-0.1-1-0.2c-0.3-0.2-0.6-0.4-0.8-0.7l-0.1,0.8h-0.7V18l0.9-0.1v1.9V21
		c0.2-0.3,0.5-0.5,0.8-0.7C48.3,20.1,48.6,20.1,49,20.1z M51.8,20.2h0.9l1.8,4.7l1.6-4.7H57c-1.5,4.2-2.3,6.3-2.4,6.5
		c-0.2,0.6-0.5,1-0.9,1.3c-0.3,0.3-0.8,0.4-1.3,0.4c-0.2,0-0.3,0-0.5,0l-0.1-0.7h0.4c0.4,0,0.7-0.1,0.9-0.2s0.4-0.4,0.5-0.8
		s0.2-0.6,0.3-0.8L51.8,20.2z M60.6,25.8v-7.5H62v3.1h3.4v-3.1h1.4v7.5h-1.4v-3.3H62v3.3H60.6z M70.1,24.1c0.4,0.5,0.9,0.7,1.7,0.7
		c0.7,0,1.3-0.2,1.6-0.7c0.4-0.5,0.6-1.1,0.6-2s-0.2-1.6-0.6-2c-0.4-0.5-0.9-0.7-1.6-0.7s-1.3,0.2-1.7,0.7s-0.6,1.2-0.6,2
		S69.7,23.6,70.1,24.1z M71.7,25.9c-1.1,0-2-0.3-2.7-1s-1-1.6-1-2.8s0.3-2.2,1-2.8c0.7-0.7,1.6-1,2.7-1s2,0.3,2.7,1s1,1.6,1,2.8
		s-0.3,2.1-1,2.8S72.9,25.9,71.7,25.9z M78.8,25.9c-0.9,0-1.7-0.2-2.4-0.6l0.3-1.1c0.3,0.2,0.7,0.3,1,0.4c0.4,0.1,0.7,0.2,1.1,0.2
		s0.8-0.1,1-0.3s0.3-0.5,0.3-0.8c0-0.5-0.3-0.8-0.9-1c0,0-0.2-0.1-0.4-0.1c-0.2-0.1-0.4-0.1-0.6-0.2s-0.3-0.1-0.4-0.1
		c-1-0.4-1.5-1-1.5-2c0-0.7,0.2-1.2,0.7-1.6s1.1-0.6,1.9-0.6c0.9,0,1.7,0.2,2.3,0.6l-0.4,1c-0.7-0.3-1.3-0.5-1.9-0.5
		c-0.4,0-0.7,0.1-0.9,0.2s-0.3,0.4-0.3,0.7c0,0.4,0.2,0.7,0.6,0.8c0.1,0,0.3,0.1,0.6,0.2s0.5,0.2,0.6,0.2c0.7,0.2,1.2,0.5,1.5,0.8
		s0.4,0.8,0.4,1.4c0,0.7-0.3,1.3-0.8,1.6C80.4,25.7,79.7,25.9,78.8,25.9L78.8,25.9z M84.3,25.8v-6.4h-2.2v-1.1h5.8v1.1h-2.2v6.4
		H84.3z M88.7,25.8v-7.5h1.4v7.5H88.7z M91.8,25.8v-7.5h1.5c0.3,0.4,0.8,1.3,1.6,2.5c0.8,1.3,1.3,2,1.5,2.3c0.1,0.1,0.1,0.2,0.3,0.4
		c0.1,0.2,0.2,0.3,0.3,0.4c0-1.2,0-1.8,0-1.8v-3.8h1.3v7.5h-1.5l-3.4-5.3L93,20.1V22v3.8L91.8,25.8z M103.1,25.9c-1.1,0-2-0.3-2.7-1
		c-0.6-0.7-1-1.6-1-2.8c0-0.8,0.2-1.4,0.5-2s0.7-1,1.3-1.4c0.6-0.3,1.3-0.5,2.1-0.5c0.9,0,1.7,0.2,2.3,0.6l-0.5,1
		c-0.6-0.3-1.2-0.5-1.9-0.5c-0.8,0-1.4,0.2-1.8,0.7s-0.7,1.2-0.7,2s0.2,1.5,0.6,2s1,0.7,1.7,0.7c0.5,0,0.9-0.1,1.3-0.2v-1.7h-1.6
		v-1.1h2.9v3.6c-0.5,0.2-0.9,0.3-1.3,0.4C104,25.9,103.6,25.9,103.1,25.9z M107.3,25.8v-7.5h4.6l-0.1,1.1h-3.1v1.9h3v1.1h-3v2.3h3.2
		v1.1H107.3z M113.1,25.8v-7.5h2.8c0.4,0,0.7,0,1,0.1c0.3,0,0.5,0.1,0.8,0.2s0.5,0.2,0.6,0.4c0.2,0.2,0.3,0.4,0.4,0.6
		s0.1,0.5,0.1,0.9c0,1-0.5,1.7-1.4,2c0.2,0.2,0.4,0.6,0.7,1.2l1.1,2.3h-1.5l-0.9-2c-0.3-0.7-0.5-1.1-0.6-1.3c-0.1,0-0.3,0-0.6,0
		h-1.2v3.2h-1.3V25.8z M116.1,21.6c0.5,0,0.9-0.1,1.1-0.3s0.3-0.5,0.3-0.9s-0.1-0.6-0.4-0.8c-0.2-0.2-0.6-0.3-1.1-0.3h-1.6v2.3h0.8
		L116.1,21.6z"/>
</g>
<path class="st0" d="M12.6,12.2C11,27.3,24.5,29.7,28.3,25.3C21.6,42.2,5.7,23.1,12.6,12.2z M10.3,10.2C4.5,11.1-4.2,29.4,6.1,27.4
	C-0.3,25.1,6.1,12.1,10.3,10.2z M10.3,7.9C8.2,6.9,0.6,9.7,0,15.4C1.4,12.4,5.2,8.3,10.3,7.9z M12.9,6.1C9.6,3.7,5.7,6.4,4.5,7
	C7.8,3.5,12.7,4.1,12.9,6.1z M16,5.1c2.3-2-1.1-5.7-4.4-2.7C12.8,1.9,16.7,1.3,16,5.1z M19.7,5.8c3.8-3.9,0.6-5.5-0.4-5.5
	C24.7-1.3,22.3,5,19.7,5.8z M20,8.1c4.4,1.6,17.4-5.4,7-6.8C29.3,1.8,29.9,6.5,20,8.1z M16.7,11.9c2.9,8,29.1,7.3,17.8-3.6
	C37,12,30.9,18.7,16.7,11.9z"/>
</svg>
